<?xml version="1.0" encoding="utf-8"?><!-- Generator: Adobe Illustrator 16.0.0, SVG Export Plug-In . SVG Version: 6.00 Build 0)  --><!DOCTYPE svg PUBLIC "-//W3C//DTD SVG 1.1//EN" "http://www.w3.org/Graphics/SVG/1.1/DTD/svg11.dtd"><svg version="1.1" id="图层_1" xmlns="http://www.w3.org/2000/svg" xmlns:xlink="http://www.w3.org/1999/xlink" x="0px" y="0px" width="300px" height="300px" viewBox="0 0 300 300" enable-background="new 0 0 300 300" xml:space="preserve">
<path d="M 75 31.33 L 225 31.33 L 225 61.33 L 75 61.33 Z M 130 92.27 A 20 20 0 1 0 170 92.27 A 20 20 0 1 0 130 92.27 Z M 100 153.183 C 100 133.183 150 133.183 150 133.183 C 200 133.183 200 153.183 200 153.183 C 200 173.183 150 173.183 150 173.183 C 100 173.183 100 153.183 100 153.183 Z M 126.489 268.538 L 111.958 223.817 L 150 196.178 L 188.042 223.817 L 173.511 268.538 Z" fill="#000"/>



</svg>